<svg width="41" height="42" viewBox="0 0 41 42" fill="none" xmlns="http://www.w3.org/2000/svg">
<path d="M35.5776 10.8444C38.3846 10.8444 40.6601 8.57986 40.6601 5.78635C40.6601 2.99285 38.3846 0.728271 35.5776 0.728271C32.7706 0.728271 30.4951 2.99285 30.4951 5.78635C30.4951 8.57986 32.7706 10.8444 35.5776 10.8444Z" fill="#999999"/>
<path d="M17.7888 5.78635C16.8028 5.78635 15.8371 5.87233 14.8917 6.02407C13.9159 2.95381 11.029 0.728271 7.62375 0.728271C3.41544 0.728271 0 4.1273 0 8.31539C0 10.6371 1.05208 12.7159 2.7039 14.1069C0.991092 16.8282 0 20.04 0 23.4896C0 33.2669 7.96428 41.1929 17.7888 41.1929C27.6132 41.1929 35.5775 33.2669 35.5775 23.4896C35.5775 13.7124 27.6132 5.78635 17.7888 5.78635ZM24.7264 28.5477C23.8471 27.0354 22.2105 26.0187 20.33 26.0187C18.4495 26.0187 16.8129 27.0354 15.9336 28.5477C15.5016 27.8042 15.2475 26.9393 15.2475 26.0187C15.2475 23.2266 17.5245 20.9606 20.33 20.9606C23.1356 20.9606 25.4125 23.2266 25.4125 26.0187C25.4125 26.9393 25.1584 27.8042 24.7264 28.5477Z" fill="#999999"/>
</svg>
