<svg width="146" height="28" viewBox="0 0 146 28" fill="none" xmlns="http://www.w3.org/2000/svg">
<path d="M1.47255 21.14C1.11788 21.14 0.819216 21.0187 0.57655 20.776C0.333883 20.5333 0.212549 20.2347 0.212549 19.88V7.868C0.212549 7.51333 0.333883 7.21467 0.57655 6.972C0.819216 6.71067 1.11788 6.58 1.47255 6.58C1.82722 6.58 2.12588 6.71067 2.36855 6.972C2.62988 7.21467 2.76055 7.51333 2.76055 7.868V9.016C3.46988 8.232 4.23522 7.60667 5.05655 7.14C5.87788 6.67333 6.84855 6.44 7.96855 6.44C8.99522 6.44 9.88188 6.68267 10.6286 7.168C11.3939 7.65333 11.9725 8.316 12.3645 9.156C12.7752 9.996 12.9806 10.92 12.9806 11.928V19.88C12.9806 20.2347 12.8499 20.5333 12.5886 20.776C12.3459 21.0187 12.0472 21.14 11.6925 21.14C11.3379 21.14 11.0392 21.0187 10.7965 20.776C10.5539 20.5333 10.4326 20.2347 10.4326 19.88V12.208C10.4326 9.93067 9.40588 8.792 7.35255 8.792C6.41922 8.792 5.57922 9.03467 4.83255 9.52C4.10455 10.0053 3.41388 10.6587 2.76055 11.48V19.88C2.76055 20.2347 2.62988 20.5333 2.36855 20.776C2.12588 21.0187 1.82722 21.14 1.47255 21.14ZM20.6436 21.14C20.2889 21.14 19.9902 21.0187 19.7476 20.776C19.5049 20.5333 19.3836 20.2347 19.3836 19.88V8.904H17.7316C17.4329 8.904 17.1716 8.80133 16.9476 8.596C16.7422 8.372 16.6396 8.11067 16.6396 7.812C16.6396 7.49467 16.7422 7.23333 16.9476 7.028C17.1716 6.82267 17.4329 6.72 17.7316 6.72H19.3836V5.096C19.3836 3.976 19.5796 3.06133 19.9716 2.352C20.3822 1.624 20.9049 1.10133 21.5396 0.783998C22.1929 0.447999 22.8742 0.28 23.5836 0.28C24.4609 0.28 25.2729 0.466666 26.0196 0.839999C26.2062 0.933332 26.3556 1.07333 26.4676 1.26C26.5982 1.428 26.6636 1.61467 26.6636 1.82C26.6636 2.1 26.5609 2.352 26.3556 2.576C26.1502 2.78133 25.9076 2.884 25.6276 2.884C25.4222 2.884 25.2076 2.856 24.9836 2.8C24.5356 2.744 24.2836 2.716 24.2276 2.716C23.4622 2.716 22.8836 2.89333 22.4916 3.248C22.1182 3.60267 21.9316 4.24667 21.9316 5.18V6.72H25.4316C25.7489 6.72 26.0102 6.82267 26.2156 7.028C26.4209 7.23333 26.5236 7.49467 26.5236 7.812C26.5236 8.11067 26.4209 8.372 26.2156 8.596C26.0102 8.80133 25.7489 8.904 25.4316 8.904H21.9316V19.88C21.9316 20.2347 21.8009 20.5333 21.5396 20.776C21.2969 21.0187 20.9982 21.14 20.6436 21.14ZM35.0655 21.28C32.3402 21.28 30.9775 20.048 30.9775 17.584V8.904H28.9895C28.8402 8.904 28.7095 8.85733 28.5975 8.764C28.5042 8.652 28.4575 8.52133 28.4575 8.372C28.4575 8.18533 28.5415 8.02667 28.7095 7.896L32.5175 4.172C32.6855 4.004 32.8442 3.92 32.9935 3.92C33.1429 3.92 33.2642 3.976 33.3575 4.088C33.4695 4.2 33.5255 4.33067 33.5255 4.48V6.72H36.6895C37.0069 6.72 37.2682 6.82267 37.4735 7.028C37.6789 7.23333 37.7815 7.49467 37.7815 7.812C37.7815 8.11067 37.6789 8.372 37.4735 8.596C37.2682 8.80133 37.0069 8.904 36.6895 8.904H33.5255V17.36C33.5255 18.088 33.6935 18.5547 34.0295 18.76C34.3842 18.9467 34.8229 19.04 35.3455 19.04C35.7189 19.04 36.0922 18.984 36.4655 18.872C36.5402 18.8533 36.6149 18.8347 36.6895 18.816C36.7829 18.7973 36.8949 18.788 37.0255 18.788C37.2869 18.788 37.5202 18.8907 37.7255 19.096C37.9309 19.2827 38.0335 19.516 38.0335 19.796C38.0335 20.2253 37.8189 20.552 37.3895 20.776C36.6615 21.112 35.8869 21.28 35.0655 21.28ZM43.489 21.14C43.1343 21.14 42.8356 21.0187 42.593 20.776C42.3503 20.5333 42.229 20.2347 42.229 19.88V1.708C42.229 1.35333 42.3503 1.05467 42.593 0.812C42.8356 0.550666 43.1343 0.42 43.489 0.42C43.8623 0.42 44.1703 0.541332 44.413 0.783998C44.6556 1.02667 44.777 1.33467 44.777 1.708V19.88C44.777 20.2347 44.6463 20.5333 44.385 20.776C44.1423 21.0187 43.8436 21.14 43.489 21.14ZM54.2416 21.28C53.4203 21.28 52.6549 21.112 51.9456 20.776C51.2549 20.44 50.7043 19.9547 50.2936 19.32C49.8829 18.6667 49.6776 17.92 49.6776 17.08C49.6776 15.6987 50.2189 14.5973 51.3016 13.776C52.4029 12.9547 54.0083 12.544 56.1176 12.544H59.5056V12.32C59.5056 11.088 59.1976 10.2013 58.5816 9.66C57.9843 9.11867 57.0416 8.848 55.7536 8.848C55.0443 8.848 54.4096 8.904 53.8496 9.016C53.3083 9.128 52.7016 9.296 52.0296 9.52C51.8803 9.55733 51.7589 9.576 51.6656 9.576C51.3856 9.576 51.1429 9.47333 50.9376 9.268C50.7323 9.06267 50.6296 8.81067 50.6296 8.512C50.6296 8.008 50.8723 7.65333 51.3576 7.448C52.9443 6.776 54.5589 6.44 56.2016 6.44C57.4896 6.44 58.5723 6.70133 59.4496 7.224C60.3456 7.74667 60.9989 8.428 61.4096 9.268C61.8389 10.0893 62.0536 10.9853 62.0536 11.956V19.88C62.0536 20.2347 61.9229 20.5333 61.6616 20.776C61.4189 21.0187 61.1203 21.14 60.7656 21.14C60.4109 21.14 60.1123 21.0187 59.8696 20.776C59.6269 20.5333 59.5056 20.2347 59.5056 19.88V19.152C58.1243 20.5707 56.3696 21.28 54.2416 21.28ZM55.1936 19.04C56.0149 19.04 56.8083 18.844 57.5736 18.452C58.3389 18.0413 58.9829 17.5373 59.5056 16.94V14.588H56.4536C53.6349 14.588 52.2256 15.3253 52.2256 16.8C52.2256 17.472 52.4496 18.0133 52.8976 18.424C53.3643 18.8347 54.1296 19.04 55.1936 19.04ZM68.9843 21.14C68.6296 21.14 68.3309 21.0187 68.0883 20.776C67.8456 20.5333 67.7243 20.2347 67.7243 19.88V7.868C67.7243 7.51333 67.8456 7.21467 68.0883 6.972C68.3309 6.71067 68.6296 6.58 68.9843 6.58C69.3389 6.58 69.6376 6.71067 69.8803 6.972C70.1416 7.21467 70.2723 7.51333 70.2723 7.868V9.016C70.9816 8.232 71.7469 7.60667 72.5683 7.14C73.3896 6.67333 74.3603 6.44 75.4803 6.44C76.5069 6.44 77.3936 6.68267 78.1403 7.168C78.9056 7.65333 79.4843 8.316 79.8763 9.156C80.2869 9.996 80.4923 10.92 80.4923 11.928V19.88C80.4923 20.2347 80.3616 20.5333 80.1003 20.776C79.8576 21.0187 79.5589 21.14 79.2043 21.14C78.8496 21.14 78.5509 21.0187 78.3083 20.776C78.0656 20.5333 77.9443 20.2347 77.9443 19.88V12.208C77.9443 9.93067 76.9176 8.792 74.8643 8.792C73.9309 8.792 73.0909 9.03467 72.3443 9.52C71.6163 10.0053 70.9256 10.6587 70.2723 11.48V19.88C70.2723 20.2347 70.1416 20.5333 69.8803 20.776C69.6376 21.0187 69.3389 21.14 68.9843 21.14ZM92.0948 21.28C90.9374 21.28 89.8361 20.9907 88.7908 20.412C87.7641 19.8147 86.9241 18.956 86.2708 17.836C85.6361 16.6973 85.3188 15.372 85.3188 13.86C85.3188 12.348 85.6361 11.032 86.2708 9.912C86.9241 8.77333 87.7641 7.91467 88.7908 7.336C89.8361 6.73867 90.9374 6.44 92.0948 6.44C93.9241 6.44 95.5201 7.14933 96.8828 8.568V1.708C96.8828 1.33467 97.0041 1.02667 97.2468 0.783998C97.5081 0.541332 97.8161 0.42 98.1708 0.42C98.5254 0.42 98.8241 0.550666 99.0668 0.812C99.3094 1.05467 99.4308 1.35333 99.4308 1.708V19.88C99.4308 20.2347 99.3094 20.5333 99.0668 20.776C98.8241 21.0187 98.5254 21.14 98.1708 21.14C97.8161 21.14 97.5081 21.0187 97.2468 20.776C97.0041 20.5333 96.8828 20.2347 96.8828 19.88V19.152C95.5201 20.5707 93.9241 21.28 92.0948 21.28ZM92.4588 18.9C93.3174 18.9 94.1201 18.7133 94.8668 18.34C95.6321 17.948 96.3041 17.4347 96.8828 16.8V10.92C96.3041 10.2853 95.6321 9.78133 94.8668 9.408C94.1201 9.016 93.3174 8.82 92.4588 8.82C91.0774 8.82 89.9668 9.25867 89.1268 10.136C88.2868 11.0133 87.8668 12.2547 87.8668 13.86C87.8668 15.4653 88.2868 16.7067 89.1268 17.584C89.9668 18.4613 91.0774 18.9 92.4588 18.9ZM106.455 3.808C106.063 3.808 105.727 3.668 105.447 3.388C105.167 3.108 105.027 2.772 105.027 2.38V2.268C105.027 1.876 105.167 1.54 105.447 1.26C105.727 0.979999 106.063 0.839999 106.455 0.839999H106.623C107.015 0.839999 107.351 0.979999 107.631 1.26C107.911 1.54 108.051 1.876 108.051 2.268V2.38C108.051 2.772 107.911 3.108 107.631 3.388C107.351 3.668 107.015 3.808 106.623 3.808H106.455ZM106.511 21.14C106.156 21.14 105.858 21.0187 105.615 20.776C105.372 20.5333 105.251 20.2347 105.251 19.88V7.868C105.251 7.51333 105.372 7.21467 105.615 6.972C105.858 6.71067 106.156 6.58 106.511 6.58C106.884 6.58 107.192 6.70133 107.435 6.944C107.678 7.18667 107.799 7.49467 107.799 7.868V19.88C107.799 20.2347 107.668 20.5333 107.407 20.776C107.164 21.0187 106.866 21.14 106.511 21.14ZM114.883 21.14C114.529 21.14 114.23 21.0187 113.987 20.776C113.745 20.5333 113.623 20.2347 113.623 19.88V7.868C113.623 7.51333 113.745 7.21467 113.987 6.972C114.23 6.71067 114.529 6.58 114.883 6.58C115.238 6.58 115.537 6.71067 115.779 6.972C116.041 7.21467 116.171 7.51333 116.171 7.868V9.016C116.881 8.232 117.646 7.60667 118.467 7.14C119.289 6.67333 120.259 6.44 121.379 6.44C122.406 6.44 123.293 6.68267 124.039 7.168C124.805 7.65333 125.383 8.316 125.775 9.156C126.186 9.996 126.391 10.92 126.391 11.928V19.88C126.391 20.2347 126.261 20.5333 125.999 20.776C125.757 21.0187 125.458 21.14 125.103 21.14C124.749 21.14 124.45 21.0187 124.207 20.776C123.965 20.5333 123.843 20.2347 123.843 19.88V12.208C123.843 9.93067 122.817 8.792 120.763 8.792C119.83 8.792 118.99 9.03467 118.243 9.52C117.515 10.0053 116.825 10.6587 116.171 11.48V19.88C116.171 20.2347 116.041 20.5333 115.779 20.776C115.537 21.0187 115.238 21.14 114.883 21.14ZM138.75 27.72C137.667 27.72 136.575 27.58 135.474 27.3C134.373 27.02 133.467 26.6747 132.758 26.264C132.422 26.0587 132.254 25.732 132.254 25.284C132.254 24.9853 132.357 24.7147 132.562 24.472C132.786 24.248 133.057 24.136 133.374 24.136C133.523 24.136 133.691 24.1733 133.878 24.248C135.297 24.9573 136.837 25.312 138.498 25.312C141.354 25.312 142.782 23.7907 142.782 20.748V18.872C141.457 20.2907 139.861 21 137.994 21C136.893 21 135.819 20.7293 134.774 20.188C133.747 19.628 132.898 18.8067 132.226 17.724C131.554 16.6227 131.218 15.288 131.218 13.72C131.218 12.152 131.554 10.8267 132.226 9.744C132.898 8.64267 133.747 7.82133 134.774 7.28C135.819 6.72 136.893 6.44 137.994 6.44C139.861 6.44 141.457 7.14933 142.782 8.568V7.868C142.782 7.51333 142.903 7.21467 143.146 6.972C143.389 6.71067 143.687 6.58 144.042 6.58C144.397 6.58 144.695 6.71067 144.938 6.972C145.199 7.21467 145.33 7.51333 145.33 7.868V20.384C145.33 22.736 144.761 24.5467 143.622 25.816C142.483 27.0853 140.859 27.72 138.75 27.72ZM138.526 18.676C139.403 18.676 140.178 18.4893 140.85 18.116C141.522 17.7427 142.166 17.2387 142.782 16.604V10.836C142.166 10.2013 141.522 9.69733 140.85 9.324C140.178 8.95067 139.403 8.764 138.526 8.764C137.126 8.764 135.978 9.19333 135.082 10.052C134.205 10.892 133.766 12.1147 133.766 13.72C133.766 15.3253 134.205 16.5573 135.082 17.416C135.978 18.256 137.126 18.676 138.526 18.676Z" fill="#111111"/>
<path d="M0.57655 20.776L1.28366 20.0689L1.28366 20.0689L0.57655 20.776ZM0.57655 6.972L1.28366 7.67911L1.29675 7.66602L1.30934 7.65245L0.57655 6.972ZM2.36855 6.972L1.63576 7.65245L1.66096 7.67959L1.6881 7.70479L2.36855 6.972ZM2.76055 9.016H1.76055V11.6118L3.50209 9.68691L2.76055 9.016ZM5.05655 7.14L5.55056 8.00946L5.05655 7.14ZM10.6286 7.168L10.0835 8.0065L10.093 8.01251L10.6286 7.168ZM12.3645 9.156L11.4584 9.57889L11.4622 9.58708L11.4662 9.59521L12.3645 9.156ZM12.5886 20.776L11.9081 20.0432L11.8945 20.0558L11.8814 20.0689L12.5886 20.776ZM10.7965 20.776L10.0894 21.4831L10.0894 21.4831L10.7965 20.776ZM4.83255 9.52L4.28752 8.6815L4.27785 8.68795L4.83255 9.52ZM2.76055 11.48L1.97795 10.8575L1.76055 11.1308V11.48H2.76055ZM2.36855 20.776L1.6881 20.0432L1.67453 20.0558L1.66144 20.0689L2.36855 20.776ZM1.47255 20.14C1.37318 20.14 1.33189 20.1171 1.28366 20.0689L-0.130557 21.4831C0.306544 21.9202 0.862585 22.14 1.47255 22.14V20.14ZM1.28366 20.0689C1.23542 20.0207 1.21255 19.9794 1.21255 19.88H-0.787451C-0.787451 20.49 -0.567659 21.046 -0.130557 21.4831L1.28366 20.0689ZM1.21255 19.88V7.868H-0.787451V19.88H1.21255ZM1.21255 7.868C1.21255 7.76863 1.23542 7.72734 1.28366 7.67911L-0.130557 6.26489C-0.567659 6.70199 -0.787451 7.25803 -0.787451 7.868H1.21255ZM1.30934 7.65245C1.36399 7.5936 1.3977 7.58 1.47255 7.58V5.58C0.838069 5.58 0.274444 5.82773 -0.156244 6.29155L1.30934 7.65245ZM1.47255 7.58C1.5474 7.58 1.58111 7.5936 1.63576 7.65245L3.10134 6.29155C2.67065 5.82773 2.10703 5.58 1.47255 5.58V7.58ZM1.6881 7.70479C1.74695 7.75944 1.76055 7.79315 1.76055 7.868H3.76055C3.76055 7.23352 3.51282 6.66989 3.049 6.23921L1.6881 7.70479ZM1.76055 7.868V9.016H3.76055V7.868H1.76055ZM3.50209 9.68691C4.14842 8.97254 4.83209 8.41768 5.55056 8.00946L4.56254 6.27054C3.63834 6.79566 2.79134 7.49146 2.01901 8.34509L3.50209 9.68691ZM5.55056 8.00946C6.19554 7.64299 6.98949 7.44 7.96855 7.44V5.44C6.70761 5.44 5.56022 5.70368 4.56254 6.27054L5.55056 8.00946ZM7.96855 7.44C8.83205 7.44 9.52277 7.64193 10.0836 8.00644L11.1735 6.32956C10.241 5.7234 9.15838 5.44 7.96855 5.44V7.44ZM10.093 8.01251C10.6932 8.39313 11.1452 8.90775 11.4584 9.57889L13.2707 8.73311C12.7999 7.72425 12.0946 6.91354 11.1641 6.32349L10.093 8.01251ZM11.4662 9.59521C11.8048 10.288 11.9806 11.0601 11.9806 11.928H13.9806C13.9806 10.7799 13.7456 9.70403 13.2629 8.71679L11.4662 9.59521ZM11.9806 11.928V19.88H13.9806V11.928H11.9806ZM11.9806 19.88C11.9806 19.9549 11.9669 19.9886 11.9081 20.0432L13.269 21.5088C13.7328 21.0781 13.9806 20.5145 13.9806 19.88H11.9806ZM11.8814 20.0689C11.8332 20.1171 11.7919 20.14 11.6925 20.14V22.14C12.3025 22.14 12.8586 21.9202 13.2957 21.4831L11.8814 20.0689ZM11.6925 20.14C11.5932 20.14 11.5519 20.1171 11.5037 20.0689L10.0894 21.4831C10.5265 21.9202 11.0826 22.14 11.6925 22.14V20.14ZM11.5037 20.0689C11.4554 20.0207 11.4326 19.9794 11.4326 19.88H9.43255C9.43255 20.49 9.65234 21.046 10.0894 21.4831L11.5037 20.0689ZM11.4326 19.88V12.208H9.43255V19.88H11.4326ZM11.4326 12.208C11.4326 10.9393 11.1488 9.80105 10.4052 8.97636C9.64393 8.132 8.56163 7.792 7.35255 7.792V9.792C8.1968 9.792 8.65451 10.0213 8.91986 10.3156C9.20296 10.6296 9.43255 11.1994 9.43255 12.208H11.4326ZM7.35255 7.792C6.23554 7.792 5.20445 8.08558 4.28756 8.68156L5.37754 10.3584C5.95398 9.98376 6.6029 9.792 7.35255 9.792V7.792ZM4.27785 8.68795C3.44823 9.24103 2.68343 9.97058 1.97795 10.8575L3.54315 12.1025C4.14433 11.3468 4.76087 10.7696 5.38725 10.352L4.27785 8.68795ZM1.76055 11.48V19.88H3.76055V11.48H1.76055ZM1.76055 19.88C1.76055 19.9549 1.74695 19.9886 1.6881 20.0432L3.049 21.5088C3.51282 21.0781 3.76055 20.5145 3.76055 19.88H1.76055ZM1.66144 20.0689C1.61321 20.1171 1.57192 20.14 1.47255 20.14V22.14C2.08251 22.14 2.63855 21.9202 3.07566 21.4831L1.66144 20.0689ZM19.7476 20.776L20.4547 20.0689L20.4547 20.0689L19.7476 20.776ZM19.3836 8.904H20.3836V7.904H19.3836V8.904ZM16.9476 8.596L16.2104 9.27172L16.2398 9.30377L16.2719 9.33315L16.9476 8.596ZM16.9476 7.028L16.2719 6.29085L16.2558 6.30553L16.2405 6.32089L16.9476 7.028ZM19.3836 6.72V7.72H20.3836V6.72H19.3836ZM19.9716 2.352L19.1006 1.86066L19.0963 1.86831L19.9716 2.352ZM21.5396 0.783998L21.9868 1.67848L21.9969 1.67329L21.5396 0.783998ZM26.0196 0.839999L25.5724 1.73443L25.5724 1.73443L26.0196 0.839999ZM26.4676 1.26L25.6101 1.77449L25.6412 1.82627L25.6782 1.87394L26.4676 1.26ZM26.3556 2.576L27.0627 3.2831L27.0781 3.26774L27.0927 3.25172L26.3556 2.576ZM24.9836 2.8L25.2261 1.82986L25.1675 1.81521L25.1076 1.80772L24.9836 2.8ZM22.4916 3.248L21.8207 2.50647L21.8116 2.51462L21.8028 2.523L22.4916 3.248ZM21.9316 6.72H20.9316V7.72H21.9316V6.72ZM26.2156 7.028L25.5085 7.73511L25.5085 7.73511L26.2156 7.028ZM26.2156 8.596L26.9227 9.30311L26.9381 9.28774L26.9527 9.27172L26.2156 8.596ZM21.9316 8.904V7.904H20.9316V8.904H21.9316ZM21.5396 20.776L20.8591 20.0432L20.8456 20.0558L20.8325 20.0689L21.5396 20.776ZM20.6436 20.14C20.5442 20.14 20.5029 20.1171 20.4547 20.0689L19.0405 21.4831C19.4776 21.9202 20.0336 22.14 20.6436 22.14V20.14ZM20.4547 20.0689C20.4065 20.0207 20.3836 19.9794 20.3836 19.88H18.3836C18.3836 20.49 18.6034 21.046 19.0405 21.4831L20.4547 20.0689ZM20.3836 19.88V8.904H18.3836V19.88H20.3836ZM19.3836 7.904H17.7316V9.904H19.3836V7.904ZM17.7316 7.904C17.6879 7.904 17.6664 7.89838 17.6233 7.85885L16.2719 9.33315C16.6767 9.70429 17.1779 9.904 17.7316 9.904V7.904ZM17.6847 7.92027C17.6452 7.87715 17.6396 7.85569 17.6396 7.812H15.6396C15.6396 8.36564 15.8393 8.86685 16.2104 9.27172L17.6847 7.92027ZM17.6396 7.812C17.6396 7.76229 17.6473 7.74367 17.6473 7.74365C17.6475 7.7431 17.6476 7.743 17.6475 7.74319C17.6474 7.74337 17.6474 7.74346 17.6474 7.74334C17.6475 7.74322 17.648 7.74255 17.649 7.74131C17.65 7.74006 17.6518 7.73798 17.6547 7.73511L16.2405 6.32089C15.8293 6.73209 15.6396 7.25654 15.6396 7.812H17.6396ZM17.6233 7.76515C17.6664 7.72562 17.6879 7.72 17.7316 7.72V5.72C17.1779 5.72 16.6767 5.91971 16.2719 6.29085L17.6233 7.76515ZM17.7316 7.72H19.3836V5.72H17.7316V7.72ZM20.3836 6.72V5.096H18.3836V6.72H20.3836ZM20.3836 5.096C20.3836 4.08372 20.562 3.35113 20.8468 2.83569L19.0963 1.86831C18.5972 2.77154 18.3836 3.86828 18.3836 5.096H20.3836ZM20.8426 2.84332C21.1731 2.25735 21.5603 1.89169 21.9868 1.67843L21.0924 -0.110429C20.2496 0.310978 19.5914 0.990652 19.1006 1.86068L20.8426 2.84332ZM21.9969 1.67329C22.514 1.40736 23.0391 1.28 23.5836 1.28V-0.72C22.7094 -0.72 21.8718 -0.511358 21.0822 -0.10529L21.9969 1.67329ZM23.5836 1.28C24.3138 1.28 24.9717 1.43407 25.5724 1.73443L26.4668 -0.0544281C25.5742 -0.500737 24.608 -0.72 23.5836 -0.72V1.28ZM25.5724 1.73443C25.5814 1.73893 25.5915 1.74352 25.6101 1.77449L27.3251 0.745504C27.1197 0.403142 26.8311 0.12773 26.4668 -0.0544285L25.5724 1.73443ZM25.6782 1.87394C25.6821 1.87892 25.6765 1.87281 25.6707 1.85635C25.6681 1.84876 25.6661 1.84106 25.6649 1.8339C25.6638 1.82679 25.6636 1.82191 25.6636 1.82H27.6636C27.6636 1.38369 27.5188 0.982683 27.2569 0.646058L25.6782 1.87394ZM25.6636 1.82C25.6636 1.83447 25.6616 1.839 25.6605 1.8417C25.6588 1.84574 25.6502 1.8656 25.6184 1.90027L27.0927 3.25172C27.4514 2.86041 27.6636 2.37247 27.6636 1.82H25.6636ZM25.6485 1.86889C25.6374 1.87995 25.6304 1.88507 25.6281 1.88671C25.6258 1.88823 25.6266 1.88745 25.6299 1.88603C25.6333 1.88459 25.6364 1.88379 25.6378 1.8835C25.6392 1.88324 25.6362 1.884 25.6276 1.884V3.884C26.1836 3.884 26.6776 3.66821 27.0627 3.2831L25.6485 1.86889ZM25.6276 1.884C25.5134 1.884 25.3805 1.86845 25.2261 1.82986L24.741 3.77014C25.0347 3.84355 25.3311 3.884 25.6276 3.884V1.884ZM25.1076 1.80772C24.882 1.77952 24.7017 1.75786 24.569 1.74311C24.4682 1.73191 24.3246 1.716 24.2276 1.716V3.716C24.1896 3.716 24.1726 3.71321 24.2158 3.71714C24.2448 3.71978 24.2882 3.72422 24.3481 3.73088C24.4674 3.74413 24.6372 3.76448 24.8595 3.79228L25.1076 1.80772ZM24.2276 1.716C23.3239 1.716 22.4642 1.92421 21.8207 2.50647L23.1625 3.98953C23.303 3.86245 23.6006 3.716 24.2276 3.716V1.716ZM21.8028 2.523C21.1199 3.17177 20.9316 4.17684 20.9316 5.18H22.9316C22.9316 4.31649 23.1166 4.03357 23.1803 3.973L21.8028 2.523ZM20.9316 5.18V6.72H22.9316V5.18H20.9316ZM21.9316 7.72H25.4316V5.72H21.9316V7.72ZM25.4316 7.72C25.4813 7.72 25.4999 7.72774 25.4999 7.72775C25.5005 7.72797 25.5006 7.72803 25.5004 7.72794C25.5002 7.72784 25.5001 7.72778 25.5002 7.72786C25.5004 7.72794 25.501 7.72838 25.5023 7.7294C25.5035 7.73043 25.5056 7.73224 25.5085 7.73511L26.9227 6.32089C26.5115 5.9097 25.987 5.72 25.4316 5.72V7.72ZM25.5085 7.73511C25.5113 7.73798 25.5132 7.74006 25.5142 7.74131C25.5152 7.74255 25.5156 7.74322 25.5157 7.74334C25.5158 7.74346 25.5157 7.74337 25.5156 7.74319C25.5155 7.743 25.5156 7.7431 25.5158 7.74365C25.5158 7.74367 25.5236 7.76229 25.5236 7.812H27.5236C27.5236 7.25654 27.3339 6.73209 26.9227 6.32089L25.5085 7.73511ZM25.5236 7.812C25.5236 7.85569 25.518 7.87715 25.4784 7.92028L26.9527 9.27172C27.3239 8.86685 27.5236 8.36564 27.5236 7.812H25.5236ZM25.5085 7.88889C25.5056 7.89176 25.5035 7.89357 25.5023 7.8946C25.501 7.89561 25.5004 7.89606 25.5002 7.89614C25.5001 7.89622 25.5002 7.89616 25.5004 7.89606C25.5006 7.89596 25.5005 7.89603 25.4999 7.89625C25.4999 7.89625 25.4813 7.904 25.4316 7.904V9.904C25.987 9.904 26.5115 9.7143 26.9227 9.30311L25.5085 7.88889ZM25.4316 7.904H21.9316V9.904H25.4316V7.904ZM20.9316 8.904V19.88H22.9316V8.904H20.9316ZM20.9316 19.88C20.9316 19.9549 20.918 19.9886 20.8591 20.0432L22.22 21.5088C22.6838 21.0781 22.9316 20.5145 22.9316 19.88H20.9316ZM20.8325 20.0689C20.7842 20.1171 20.7429 20.14 20.6436 20.14V22.14C21.2535 22.14 21.8096 21.9202 22.2467 21.4831L20.8325 20.0689ZM30.9775 8.904H31.9775V7.904H30.9775V8.904ZM28.5975 8.764L27.8293 9.40418L27.8875 9.47402L27.9574 9.53222L28.5975 8.764ZM28.7095 7.896L29.3235 8.68535L29.3682 8.65056L29.4087 8.61095L28.7095 7.896ZM32.5175 4.172L33.2168 4.88699L33.2247 4.87911L32.5175 4.172ZM33.3575 4.088L32.5893 4.72818L32.6184 4.76303L32.6504 4.79511L33.3575 4.088ZM33.5255 6.72H32.5255V7.72H33.5255V6.72ZM37.4735 7.028L36.7664 7.73511L36.7664 7.73511L37.4735 7.028ZM37.4735 8.596L38.1807 9.30311L38.196 9.28774L38.2107 9.27172L37.4735 8.596ZM33.5255 8.904V7.904H32.5255V8.904H33.5255ZM34.0295 18.76L33.5081 19.6133L33.5354 19.63L33.5638 19.6449L34.0295 18.76ZM36.4655 18.872L36.223 17.9019L36.2005 17.9075L36.1782 17.9142L36.4655 18.872ZM36.6895 18.816L36.4934 17.8354L36.4701 17.8401L36.447 17.8459L36.6895 18.816ZM37.7255 19.096L37.0184 19.8031L37.0353 19.8199L37.0529 19.8359L37.7255 19.096ZM37.3895 20.776L37.8086 21.684L37.8306 21.6738L37.8521 21.6626L37.3895 20.776ZM35.0655 20.28C33.8335 20.28 33.0962 19.9994 32.6702 19.6142C32.2634 19.2464 31.9775 18.6344 31.9775 17.584H29.9775C29.9775 18.9976 30.3731 20.2336 31.3289 21.0978C32.2656 21.9446 33.5723 22.28 35.0655 22.28V20.28ZM31.9775 17.584V8.904H29.9775V17.584H31.9775ZM30.9775 7.904H28.9895V9.904H30.9775V7.904ZM28.9895 7.904C29.0207 7.904 29.0653 7.9092 29.1159 7.92726C29.1668 7.94544 29.2081 7.97106 29.2377 7.99578L27.9574 9.53222C28.2538 9.77924 28.6125 9.904 28.9895 9.904V7.904ZM29.3658 8.12382C29.3905 8.15348 29.4161 8.19477 29.4343 8.24566C29.4524 8.29623 29.4575 8.34081 29.4575 8.372H27.4575C27.4575 8.74907 27.5823 9.10776 27.8293 9.40418L29.3658 8.12382ZM29.4575 8.372C29.4575 8.43506 29.4417 8.51025 29.4043 8.58089C29.369 8.64761 29.3307 8.67972 29.3235 8.68535L28.0956 7.10665C27.7228 7.39664 27.4575 7.83078 27.4575 8.372H29.4575ZM29.4087 8.61095L33.2167 4.88695L31.8184 3.45705L28.0104 7.18105L29.4087 8.61095ZM33.2247 4.87911C33.2595 4.84426 33.2624 4.84986 33.2304 4.86679C33.1946 4.88577 33.1119 4.92 32.9935 4.92V2.92C32.4587 2.92 32.0591 3.21627 31.8104 3.46489L33.2247 4.87911ZM32.9935 4.92C32.9406 4.92 32.8629 4.90937 32.7775 4.86996C32.6914 4.83023 32.629 4.77573 32.5893 4.72818L34.1258 3.44781C33.8372 3.1015 33.4313 2.92 32.9935 2.92V4.92ZM32.6504 4.79511C32.6267 4.7714 32.5919 4.72815 32.5644 4.66392C32.5364 4.59853 32.5255 4.5338 32.5255 4.48H34.5255C34.5255 4.04811 34.3516 3.6678 34.0647 3.38089L32.6504 4.79511ZM32.5255 4.48V6.72H34.5255V4.48H32.5255ZM33.5255 7.72H36.6895V5.72H33.5255V7.72ZM36.6895 7.72C36.7393 7.72 36.7579 7.72774 36.7579 7.72775C36.7584 7.72797 36.7585 7.72803 36.7584 7.72794C36.7582 7.72784 36.7581 7.72778 36.7582 7.72786C36.7583 7.72794 36.759 7.72838 36.7602 7.7294C36.7615 7.73043 36.7636 7.73224 36.7664 7.73511L38.1807 6.32089C37.7695 5.9097 37.245 5.72 36.6895 5.72V7.72ZM36.7664 7.73511C36.7693 7.73798 36.7711 7.74006 36.7721 7.74131C36.7732 7.74255 36.7736 7.74322 36.7737 7.74334C36.7738 7.74346 36.7737 7.74337 36.7736 7.74319C36.7735 7.743 36.7736 7.7431 36.7738 7.74365C36.7738 7.74367 36.7815 7.76229 36.7815 7.812H38.7815C38.7815 7.25654 38.5919 6.73209 38.1807 6.32089L36.7664 7.73511ZM36.7815 7.812C36.7815 7.85569 36.7759 7.87715 36.7364 7.92027L38.2107 9.27172C38.5818 8.86685 38.7815 8.36564 38.7815 7.812H36.7815ZM36.7664 7.88889C36.7636 7.89176 36.7615 7.89357 36.7602 7.8946C36.759 7.89561 36.7583 7.89606 36.7582 7.89614C36.7581 7.89622 36.7582 7.89616 36.7584 7.89606C36.7585 7.89596 36.7584 7.89603 36.7579 7.89625C36.7579 7.89625 36.7393 7.904 36.6895 7.904V9.904C37.245 9.904 37.7695 9.7143 38.1807 9.30311L36.7664 7.88889ZM36.6895 7.904H33.5255V9.904H36.6895V7.904ZM32.5255 8.904V17.36H34.5255V8.904H32.5255ZM32.5255 17.36C32.5255 18.1471 32.6917 19.1144 33.5081 19.6133L34.551 17.9067C34.6232 17.9509 34.6197 17.9931 34.5924 17.9173C34.5613 17.8307 34.5255 17.6575 34.5255 17.36H32.5255ZM33.5638 19.6449C34.0991 19.9266 34.7083 20.04 35.3455 20.04V18.04C34.9375 18.04 34.6694 17.9667 34.4953 17.8751L33.5638 19.6449ZM35.3455 20.04C35.8204 20.04 36.2905 19.9686 36.7529 19.8298L36.1782 17.9142C35.894 17.9994 35.6173 18.04 35.3455 18.04V20.04ZM36.7081 19.8421C36.7828 19.8235 36.8574 19.8048 36.9321 19.7861L36.447 17.8459C36.3723 17.8645 36.2977 17.8832 36.223 17.9019L36.7081 19.8421ZM36.8857 19.7966C36.8956 19.7946 36.9383 19.788 37.0255 19.788V17.788C36.8515 17.788 36.6702 17.8001 36.4934 17.8354L36.8857 19.7966ZM37.0255 19.788C37.025 19.788 37.0204 19.7879 37.0131 19.7864C37.0057 19.7849 36.999 19.7826 36.9938 19.7803C36.9888 19.7781 36.988 19.7771 36.9917 19.7797C36.9955 19.7823 37.0046 19.7893 37.0184 19.8031L38.4327 18.3889C38.0626 18.0189 37.5827 17.788 37.0255 17.788V19.788ZM37.0529 19.8359C37.058 19.8406 37.0574 19.8409 37.0539 19.8361C37.0503 19.8312 37.0455 19.8235 37.0412 19.8137C37.037 19.804 37.0347 19.7958 37.0337 19.7909C37.0328 19.7862 37.0335 19.7873 37.0335 19.796H39.0335C39.0335 19.2372 38.8142 18.7342 38.3982 18.3561L37.0529 19.8359ZM37.0335 19.796C37.0335 19.8194 37.0307 19.8278 37.0313 19.8256C37.0321 19.8227 37.0343 19.8177 37.0368 19.8138C37.043 19.8045 37.0262 19.8376 36.927 19.8894L37.8521 21.6626C38.1822 21.4904 38.4875 21.2481 38.7083 20.9122C38.9332 20.5698 39.0335 20.1859 39.0335 19.796H37.0335ZM36.9705 19.868C36.3771 20.1419 35.7458 20.28 35.0655 20.28V22.28C36.028 22.28 36.946 22.0821 37.8086 21.684L36.9705 19.868ZM42.593 20.776L43.3001 20.0689L43.3001 20.0689L42.593 20.776ZM42.593 0.812L43.3001 1.51911L43.3132 1.50602L43.3258 1.49245L42.593 0.812ZM44.413 0.783998L45.1201 0.0768919L45.1201 0.0768903L44.413 0.783998ZM44.385 20.776L43.7045 20.0432L43.6909 20.0558L43.6778 20.0689L44.385 20.776ZM43.489 20.14C43.3896 20.14 43.3483 20.1171 43.3001 20.0689L41.8858 21.4831C42.323 21.9202 42.879 22.14 43.489 22.14V20.14ZM43.3001 20.0689C43.2518 20.0207 43.229 19.9794 43.229 19.88H41.229C41.229 20.49 41.4487 21.046 41.8858 21.4831L43.3001 20.0689ZM43.229 19.88V1.708H41.229V19.88H43.229ZM43.229 1.708C43.229 1.60863 43.2518 1.56734 43.3001 1.51911L41.8858 0.104893C41.4487 0.541995 41.229 1.09803 41.229 1.708H43.229ZM43.3258 1.49245C43.3804 1.4336 43.4141 1.42 43.489 1.42V-0.58C42.8545 -0.58 42.2909 -0.33227 41.8602 0.131549L43.3258 1.49245ZM43.489 1.42C43.6228 1.42 43.6681 1.45339 43.7059 1.49111L45.1201 0.0768903C44.6724 -0.370722 44.1018 -0.58 43.489 -0.58V1.42ZM43.7058 1.4911C43.7436 1.52882 43.777 1.5742 43.777 1.708H45.777C45.777 1.09513 45.5677 0.524506 45.1201 0.0768919L43.7058 1.4911ZM43.777 1.708V19.88H45.777V1.708H43.777ZM43.777 19.88C43.777 19.9549 43.7634 19.9886 43.7045 20.0432L45.0654 21.5088C45.5292 21.0781 45.777 20.5145 45.777 19.88H43.777ZM43.6778 20.0689C43.6296 20.1171 43.5883 20.14 43.489 20.14V22.14C44.0989 22.14 44.655 21.9202 45.0921 21.4831L43.6778 20.0689ZM51.9456 20.776L51.5081 21.6753L51.5175 21.6797L51.9456 20.776ZM50.2936 19.32L49.4469 19.8522L49.454 19.8633L50.2936 19.32ZM51.3016 13.776L50.7038 12.9743L50.6972 12.9793L51.3016 13.776ZM59.5056 12.544V13.544H60.5056V12.544H59.5056ZM58.5816 9.66L57.9101 10.401L57.9158 10.4061L57.9215 10.4112L58.5816 9.66ZM53.8496 9.016L53.6535 8.0354L53.647 8.03674L53.8496 9.016ZM52.0296 9.52L52.2721 10.4901L52.3094 10.4808L52.3458 10.4687L52.0296 9.52ZM50.9376 9.268L51.6447 8.56089L51.6447 8.56089L50.9376 9.268ZM51.3576 7.448L51.7473 8.36897L51.7476 8.36882L51.3576 7.448ZM59.4496 7.224L58.9378 8.08314L58.9457 8.08778L59.4496 7.224ZM61.4096 9.268L60.5112 9.70721L60.5171 9.71931L60.5234 9.73125L61.4096 9.268ZM61.6616 20.776L60.9812 20.0432L60.9676 20.0558L60.9545 20.0689L61.6616 20.776ZM59.8696 20.776L60.5767 20.0689L60.5767 20.0689L59.8696 20.776ZM59.5056 19.152H60.5056V16.6915L58.7891 18.4544L59.5056 19.152ZM57.5736 18.452L58.0295 19.342L58.038 19.3377L58.0464 19.3332L57.5736 18.452ZM59.5056 16.94L60.2582 17.5985L60.5056 17.3157V16.94H59.5056ZM59.5056 14.588H60.5056V13.588H59.5056V14.588ZM52.8976 18.424L52.2219 19.1612L52.2294 19.168L52.237 19.1747L52.8976 18.424ZM54.2416 20.28C53.5613 20.28 52.943 20.1419 52.3737 19.8723L51.5175 21.6797C52.3669 22.0821 53.2793 22.28 54.2416 22.28V20.28ZM52.3831 19.8768C51.8536 19.6192 51.4431 19.2557 51.1332 18.7767L49.454 19.8633C49.9654 20.6536 50.6563 21.2608 51.5081 21.6752L52.3831 19.8768ZM51.1402 18.7878C50.8386 18.308 50.6776 17.749 50.6776 17.08H48.6776C48.6776 18.091 48.9273 19.0254 49.447 19.8522L51.1402 18.7878ZM50.6776 17.08C50.6776 16.0054 51.0773 15.2013 51.906 14.5727L50.6972 12.9793C49.3605 13.9933 48.6776 15.3919 48.6776 17.08H50.6776ZM51.8994 14.5776C52.7577 13.9376 54.1152 13.544 56.1176 13.544V11.544C53.9014 11.544 52.0482 11.9717 50.7038 12.9744L51.8994 14.5776ZM56.1176 13.544H59.5056V11.544H56.1176V13.544ZM60.5056 12.544V12.32H58.5056V12.544H60.5056ZM60.5056 12.32C60.5056 10.946 60.1633 9.71866 59.2417 8.90883L57.9215 10.4112C58.232 10.684 58.5056 11.23 58.5056 12.32H60.5056ZM59.2531 8.91901C58.389 8.13589 57.149 7.848 55.7536 7.848V9.848C56.9342 9.848 57.5796 10.1014 57.9101 10.401L59.2531 8.91901ZM55.7536 7.848C54.9935 7.848 54.2914 7.90785 53.6535 8.03542L54.0457 9.99658C54.5279 9.90015 55.095 9.848 55.7536 9.848V7.848ZM53.647 8.03674C53.0583 8.15854 52.4128 8.33816 51.7134 8.57132L52.3458 10.4687C52.9904 10.2538 53.5582 10.0975 54.0522 9.99526L53.647 8.03674ZM51.7871 8.54986C51.7352 8.56284 51.6983 8.56997 51.6746 8.57363C51.6495 8.57748 51.6484 8.576 51.6656 8.576V10.576C51.8763 10.576 52.0876 10.5363 52.2721 10.4901L51.7871 8.54986ZM51.6656 8.576C51.657 8.576 51.654 8.57524 51.6554 8.5755C51.6568 8.57579 51.6599 8.57659 51.6633 8.57803C51.6666 8.57945 51.6674 8.58023 51.6651 8.57871C51.6628 8.57707 51.6558 8.57195 51.6447 8.56089L50.2305 9.97511C50.6156 10.3602 51.1096 10.576 51.6656 10.576V8.576ZM51.6447 8.56089C51.6364 8.55261 51.633 8.54774 51.6323 8.54665C51.6316 8.54569 51.6321 8.54627 51.6327 8.5477C51.6333 8.54909 51.6327 8.54832 51.6319 8.54397C51.6311 8.53942 51.6296 8.52922 51.6296 8.512H49.6296C49.6296 9.06742 49.8317 9.57634 50.2305 9.97511L51.6447 8.56089ZM51.6296 8.512C51.6296 8.46625 51.6351 8.4422 51.6374 8.43396C51.6394 8.42696 51.6398 8.42846 51.6369 8.43268C51.6279 8.4458 51.6409 8.41398 51.7473 8.36897L50.968 6.52703C50.589 6.68735 50.2379 6.93553 49.9863 7.30332C49.7326 7.67418 49.6296 8.09416 49.6296 8.512H51.6296ZM51.7476 8.36882C53.217 7.74647 54.6995 7.44 56.2016 7.44V5.44C54.4184 5.44 52.6715 5.80553 50.9676 6.52718L51.7476 8.36882ZM56.2016 7.44C57.3559 7.44 58.2509 7.67385 58.9378 8.0831L59.9614 6.3649C58.8937 5.72881 57.6233 5.44 56.2016 5.44V7.44ZM58.9457 8.08778C59.6906 8.52228 60.1966 9.06371 60.5112 9.70721L62.308 8.82879C61.8013 7.79228 61.0006 6.97106 59.9535 6.36022L58.9457 8.08778ZM60.5234 9.73125C60.8744 10.4028 61.0536 11.1388 61.0536 11.956H63.0536C63.0536 10.8319 62.8035 9.77589 62.2958 8.80474L60.5234 9.73125ZM61.0536 11.956V19.88H63.0536V11.956H61.0536ZM61.0536 19.88C61.0536 19.9549 61.04 19.9886 60.9812 20.0432L62.3421 21.5088C62.8059 21.0781 63.0536 20.5145 63.0536 19.88H61.0536ZM60.9545 20.0689C60.9063 20.1171 60.865 20.14 60.7656 20.14V22.14C61.3756 22.14 61.9316 21.9202 62.3687 21.4831L60.9545 20.0689ZM60.7656 20.14C60.6662 20.14 60.6249 20.1171 60.5767 20.0689L59.1625 21.4831C59.5996 21.9202 60.1556 22.14 60.7656 22.14V20.14ZM60.5767 20.0689C60.5285 20.0207 60.5056 19.9794 60.5056 19.88H58.5056C58.5056 20.49 58.7254 21.046 59.1625 21.4831L60.5767 20.0689ZM60.5056 19.88V19.152H58.5056V19.88H60.5056ZM58.7891 18.4544C57.6111 19.6642 56.1222 20.28 54.2416 20.28V22.28C56.6171 22.28 58.6374 21.4771 60.2221 19.8496L58.7891 18.4544ZM55.1936 20.04C56.181 20.04 57.1299 19.8028 58.0295 19.342L57.1177 17.562C56.4867 17.8852 55.8489 18.04 55.1936 18.04V20.04ZM58.0464 19.3332C58.9076 18.871 59.6493 18.2944 60.2582 17.5985L58.753 16.2815C58.3166 16.7803 57.7702 17.2116 57.1008 17.5708L58.0464 19.3332ZM60.5056 16.94V14.588H58.5056V16.94H60.5056ZM59.5056 13.588H56.4536V15.588H59.5056V13.588ZM56.4536 13.588C54.9896 13.588 53.7383 13.774 52.819 14.2549C52.3447 14.5031 51.9347 14.8425 51.6465 15.2949C51.3557 15.7514 51.2256 16.2654 51.2256 16.8H53.2256C53.2256 16.5973 53.2717 16.4661 53.3332 16.3696C53.3973 16.269 53.5159 16.1476 53.7462 16.0271C54.2363 15.7707 55.0989 15.588 56.4536 15.588V13.588ZM51.2256 16.8C51.2256 17.7193 51.5441 18.5399 52.2219 19.1612L53.5733 17.6868C53.3551 17.4868 53.2256 17.2247 53.2256 16.8H51.2256ZM52.237 19.1747C52.9778 19.8267 54.0452 20.04 55.1936 20.04V18.04C54.214 18.04 53.7507 17.8427 53.5582 17.6733L52.237 19.1747ZM68.0883 20.776L68.7954 20.0689L68.7954 20.0689L68.0883 20.776ZM68.0883 6.972L68.7954 7.67911L68.8085 7.66602L68.8211 7.65245L68.0883 6.972ZM69.8803 6.972L69.1475 7.65245L69.1727 7.67959L69.1998 7.70479L69.8803 6.972ZM70.2723 9.016H69.2723V11.6118L71.0138 9.68691L70.2723 9.016ZM72.5683 7.14L73.0623 8.00946L72.5683 7.14ZM78.1403 7.168L77.5952 8.0065L77.6047 8.01251L78.1403 7.168ZM79.8763 9.156L78.9701 9.57889L78.9739 9.58708L78.9779 9.59521L79.8763 9.156ZM80.1003 20.776L79.4198 20.0432L79.4063 20.0558L79.3932 20.0689L80.1003 20.776ZM78.3083 20.776L77.6012 21.4831L77.6012 21.4831L78.3083 20.776ZM72.3443 9.52L71.7992 8.6815L71.7896 8.68795L72.3443 9.52ZM70.2723 11.48L69.4897 10.8575L69.2723 11.1308V11.48H70.2723ZM69.8803 20.776L69.1998 20.0432L69.1863 20.0558L69.1732 20.0689L69.8803 20.776ZM68.9843 20.14C68.8849 20.14 68.8436 20.1171 68.7954 20.0689L67.3812 21.4831C67.8183 21.9202 68.3743 22.14 68.9843 22.14V20.14ZM68.7954 20.0689C68.7471 20.0207 68.7243 19.9794 68.7243 19.88H66.7243C66.7243 20.49 66.9441 21.046 67.3812 21.4831L68.7954 20.0689ZM68.7243 19.88V7.868H66.7243V19.88H68.7243ZM68.7243 7.868C68.7243 7.76863 68.7471 7.72734 68.7954 7.67911L67.3812 6.26489C66.9441 6.70199 66.7243 7.25803 66.7243 7.868H68.7243ZM68.8211 7.65245C68.8757 7.5936 68.9094 7.58 68.9843 7.58V5.58C68.3498 5.58 67.7862 5.82773 67.3555 6.29155L68.8211 7.65245ZM68.9843 7.58C69.0591 7.58 69.0928 7.5936 69.1475 7.65245L70.6131 6.29155C70.1824 5.82773 69.6187 5.58 68.9843 5.58V7.58ZM69.1998 7.70479C69.2587 7.75944 69.2723 7.79315 69.2723 7.868H71.2723C71.2723 7.23352 71.0245 6.66989 70.5607 6.23921L69.1998 7.70479ZM69.2723 7.868V9.016H71.2723V7.868H69.2723ZM71.0138 9.68691C71.6601 8.97254 72.3438 8.41768 73.0623 8.00946L72.0743 6.27054C71.1501 6.79566 70.3031 7.49146 69.5307 8.34509L71.0138 9.68691ZM73.0623 8.00946C73.7073 7.64299 74.5012 7.44 75.4803 7.44V5.44C74.2193 5.44 73.0719 5.70368 72.0743 6.27054L73.0623 8.00946ZM75.4803 7.44C76.3438 7.44 77.0345 7.64193 77.5953 8.00644L78.6853 6.32956C77.7527 5.7234 76.6701 5.44 75.4803 5.44V7.44ZM77.6047 8.01251C78.2049 8.39313 78.6569 8.90775 78.9701 9.57889L80.7825 8.73311C80.3116 7.72425 79.6063 6.91354 78.6758 6.32349L77.6047 8.01251ZM78.9779 9.59521C79.3166 10.288 79.4923 11.0601 79.4923 11.928H81.4923C81.4923 10.7799 81.2573 9.70403 80.7747 8.71679L78.9779 9.59521ZM79.4923 11.928V19.88H81.4923V11.928H79.4923ZM79.4923 19.88C79.4923 19.9549 79.4787 19.9886 79.4198 20.0432L80.7807 21.5088C81.2445 21.0781 81.4923 20.5145 81.4923 19.88H79.4923ZM79.3932 20.0689C79.3449 20.1171 79.3036 20.14 79.2043 20.14V22.14C79.8142 22.14 80.3703 21.9202 80.8074 21.4831L79.3932 20.0689ZM79.2043 20.14C79.1049 20.14 79.0636 20.1171 79.0154 20.0689L77.6012 21.4831C78.0383 21.9202 78.5943 22.14 79.2043 22.14V20.14ZM79.0154 20.0689C78.9671 20.0207 78.9443 19.9794 78.9443 19.88H76.9443C76.9443 20.49 77.1641 21.046 77.6012 21.4831L79.0154 20.0689ZM78.9443 19.88V12.208H76.9443V19.88H78.9443ZM78.9443 12.208C78.9443 10.9393 78.6605 9.80105 77.917 8.97636C77.1556 8.132 76.0734 7.792 74.8643 7.792V9.792C75.7085 9.792 76.1662 10.0213 76.4316 10.3156C76.7147 10.6296 76.9443 11.1994 76.9443 12.208H78.9443ZM74.8643 7.792C73.7473 7.792 72.7162 8.08558 71.7993 8.68156L72.8893 10.3584C73.4657 9.98376 74.1146 9.792 74.8643 9.792V7.792ZM71.7896 8.68795C70.96 9.24103 70.1952 9.97058 69.4897 10.8575L71.0549 12.1025C71.6561 11.3468 72.2726 10.7696 72.899 10.352L71.7896 8.68795ZM69.2723 11.48V19.88H71.2723V11.48H69.2723ZM69.2723 19.88C69.2723 19.9549 69.2587 19.9886 69.1998 20.0432L70.5607 21.5088C71.0245 21.0781 71.2723 20.5145 71.2723 19.88H69.2723ZM69.1732 20.0689C69.1249 20.1171 69.0836 20.14 68.9843 20.14V22.14C69.5942 22.14 70.1503 21.9202 70.5874 21.4831L69.1732 20.0689ZM88.7908 20.412L88.2879 21.2763L88.2971 21.2817L88.3065 21.2869L88.7908 20.412ZM86.2708 17.836L85.3973 18.3229L85.4021 18.3314L85.407 18.3399L86.2708 17.836ZM86.2708 9.912L85.4034 9.41432L85.4007 9.41899L86.2708 9.912ZM88.7908 7.336L89.2818 8.20717L89.2869 8.20424L88.7908 7.336ZM96.8828 8.568L96.1616 9.26073L97.8828 11.0527V8.568H96.8828ZM97.2468 0.783998L96.5663 0.0512035L96.5528 0.0638008L96.5397 0.0768915L97.2468 0.783998ZM99.0668 0.812L98.334 1.49245L98.3466 1.50602L98.3597 1.51911L99.0668 0.812ZM99.0668 20.776L99.7739 21.4831L99.0668 20.776ZM97.2468 20.776L96.5397 21.4831L96.5528 21.4962L96.5663 21.5088L97.2468 20.776ZM96.8828 19.152H97.8828V16.6673L96.1616 18.4593L96.8828 19.152ZM94.8668 18.34L95.314 19.2345L95.3226 19.23L94.8668 18.34ZM96.8828 16.8L97.6217 17.4738L97.8828 17.1874V16.8H96.8828ZM96.8828 10.92H97.8828V10.5326L97.6217 10.2462L96.8828 10.92ZM94.8668 9.408L94.4019 10.2934L94.415 10.3003L94.4283 10.3068L94.8668 9.408ZM89.1268 10.136L89.8491 10.8276L89.8491 10.8276L89.1268 10.136ZM92.0948 20.28C91.1125 20.28 90.1772 20.0365 89.2751 19.5371L88.3065 21.2869C89.495 21.9449 90.7624 22.28 92.0948 22.28V20.28ZM89.2937 19.5477C88.4299 19.0451 87.709 18.3169 87.1345 17.3321L85.407 18.3399C86.1392 19.5951 87.0983 20.5842 88.2879 21.2763L89.2937 19.5477ZM87.1443 17.3491C86.605 16.3816 86.3188 15.2291 86.3188 13.86H84.3188C84.3188 15.5149 84.6672 17.0131 85.3973 18.3229L87.1443 17.3491ZM86.3188 13.86C86.3188 12.4905 86.6051 11.3503 87.1408 10.405L85.4007 9.41899C84.6671 10.7137 84.3188 12.2055 84.3188 13.86H86.3188ZM87.1381 10.4097C87.7124 9.40884 88.4293 8.68767 89.2818 8.20715L88.2998 6.46485C87.099 7.14167 86.1358 8.13782 85.4034 9.41433L87.1381 10.4097ZM89.2869 8.20424C90.1875 7.68963 91.1186 7.44 92.0948 7.44V5.44C90.7562 5.44 89.4847 5.78771 88.2946 6.46776L89.2869 8.20424ZM92.0948 7.44C93.6299 7.44 94.9717 8.02192 96.1616 9.26073L97.604 7.87527C96.0685 6.27674 94.2183 5.44 92.0948 5.44V7.44ZM97.8828 8.568V1.708H95.8828V8.568H97.8828ZM97.8828 1.708C97.8828 1.5742 97.9162 1.52883 97.9539 1.49111L96.5397 0.0768915C96.0921 0.524505 95.8828 1.09513 95.8828 1.708H97.8828ZM97.9272 1.51679C98.0047 1.44482 98.0701 1.42 98.1708 1.42V-0.58C97.5621 -0.58 97.0115 -0.362159 96.5663 0.0512035L97.9272 1.51679ZM98.1708 1.42C98.2456 1.42 98.2793 1.4336 98.334 1.49245L99.7996 0.131548C99.3689 -0.33227 98.8053 -0.58 98.1708 -0.58V1.42ZM98.3597 1.51911C98.4079 1.56734 98.4308 1.60863 98.4308 1.708H100.431C100.431 1.09803 100.211 0.541995 99.7739 0.104893L98.3597 1.51911ZM98.4308 1.708V19.88H100.431V1.708H98.4308ZM98.4308 19.88C98.4308 19.9794 98.4079 20.0207 98.3597 20.0689L99.7739 21.4831C100.211 21.046 100.431 20.49 100.431 19.88H98.4308ZM98.3597 20.0689C98.3114 20.1171 98.2701 20.14 98.1708 20.14V22.14C98.7807 22.14 99.3368 21.9202 99.7739 21.4831L98.3597 20.0689ZM98.1708 20.14C98.0701 20.14 98.0047 20.1152 97.9272 20.0432L96.5663 21.5088C97.0115 21.9222 97.5621 22.14 98.1708 22.14V20.14ZM97.9539 20.0689C97.9056 20.0207 97.8828 19.9794 97.8828 19.88H95.8828C95.8828 20.49 96.1026 21.046 96.5397 21.4831L97.9539 20.0689ZM97.8828 19.88V19.152H95.8828V19.88H97.8828ZM96.1616 18.4593C94.9717 19.6981 93.6299 20.28 92.0948 20.28V22.28C94.2183 22.28 96.0685 21.4433 97.604 19.8447L96.1616 18.4593ZM92.4588 19.9C93.4681 19.9 94.4244 19.6792 95.314 19.2344L94.4196 17.4456C93.8158 17.7475 93.1668 17.9 92.4588 17.9V19.9ZM95.3226 19.23C96.1944 18.7835 96.9623 18.197 97.6217 17.4738L96.1438 16.1262C95.6459 16.6723 95.0698 17.1125 94.4109 17.45L95.3226 19.23ZM97.8828 16.8V10.92H95.8828V16.8H97.8828ZM97.6217 10.2462C96.9587 9.5191 96.185 8.93841 95.3052 8.50923L94.4283 10.3068C95.0792 10.6243 95.6495 11.0516 96.1438 11.5938L97.6217 10.2462ZM95.3316 8.5226C94.4389 8.05391 93.4763 7.82 92.4588 7.82V9.82C93.1586 9.82 93.8013 9.97808 94.4019 10.2934L95.3316 8.5226ZM92.4588 7.82C90.8457 7.82 89.4597 8.3423 88.4045 9.44443L89.8491 10.8276C90.4738 10.175 91.3092 9.82 92.4588 9.82V7.82ZM88.4045 9.44443C87.3349 10.5616 86.8668 12.0823 86.8668 13.86H88.8668C88.8668 12.427 89.2387 11.4651 89.8491 10.8276L88.4045 9.44443ZM86.8668 13.86C86.8668 15.6377 87.3349 17.1584 88.4045 18.2756L89.8491 16.8924C89.2387 16.2549 88.8668 15.293 88.8668 13.86H86.8668ZM88.4045 18.2756C89.4597 19.3777 90.8457 19.9 92.4588 19.9V17.9C91.3092 17.9 90.4738 17.545 89.8491 16.8924L88.4045 18.2756ZM105.447 3.388L104.74 4.09511L104.74 4.09511L105.447 3.388ZM107.631 3.388L108.338 4.09511L108.338 4.09511L107.631 3.388ZM105.615 20.776L106.322 20.0689L106.322 20.0689L105.615 20.776ZM105.615 6.972L106.322 7.67911L106.335 7.66602L106.348 7.65245L105.615 6.972ZM107.435 6.944L108.142 6.23689L107.435 6.944ZM107.407 20.776L106.726 20.0432L106.713 20.0558L106.7 20.0689L107.407 20.776ZM106.455 2.808C106.331 2.808 106.249 2.7755 106.154 2.68089L104.74 4.09511C105.205 4.5605 105.795 4.808 106.455 4.808V2.808ZM106.154 2.68089C106.059 2.58629 106.027 2.50377 106.027 2.38H104.027C104.027 3.04023 104.274 3.62971 104.74 4.09511L106.154 2.68089ZM106.027 2.38V2.268H104.027V2.38H106.027ZM106.027 2.268C106.027 2.14423 106.059 2.06171 106.154 1.96711L104.74 0.552892C104.274 1.01829 104.027 1.60777 104.027 2.268H106.027ZM106.154 1.96711C106.249 1.8725 106.331 1.84 106.455 1.84V-0.160001C105.795 -0.160001 105.205 0.0874959 104.74 0.552892L106.154 1.96711ZM106.455 1.84H106.623V-0.160001H106.455V1.84ZM106.623 1.84C106.747 1.84 106.829 1.8725 106.924 1.96711L108.338 0.552892C107.873 0.087496 107.283 -0.160001 106.623 -0.160001V1.84ZM106.924 1.96711C107.018 2.06171 107.051 2.14423 107.051 2.268H109.051C109.051 1.60777 108.803 1.01829 108.338 0.552892L106.924 1.96711ZM107.051 2.268V2.38H109.051V2.268H107.051ZM107.051 2.38C107.051 2.50377 107.018 2.58629 106.924 2.68089L108.338 4.09511C108.803 3.62971 109.051 3.04023 109.051 2.38H107.051ZM106.924 2.68089C106.829 2.7755 106.747 2.808 106.623 2.808V4.808C107.283 4.808 107.873 4.5605 108.338 4.09511L106.924 2.68089ZM106.623 2.808H106.455V4.808H106.623V2.808ZM106.511 20.14C106.411 20.14 106.37 20.1171 106.322 20.0689L104.908 21.4831C105.345 21.9202 105.901 22.14 106.511 22.14V20.14ZM106.322 20.0689C106.274 20.0207 106.251 19.9794 106.251 19.88H104.251C104.251 20.49 104.471 21.046 104.908 21.4831L106.322 20.0689ZM106.251 19.88V7.868H104.251V19.88H106.251ZM106.251 7.868C106.251 7.76863 106.274 7.72734 106.322 7.67911L104.908 6.26489C104.471 6.70199 104.251 7.25803 104.251 7.868H106.251ZM106.348 7.65245C106.402 7.5936 106.436 7.58 106.511 7.58V5.58C105.876 5.58 105.313 5.82773 104.882 6.29155L106.348 7.65245ZM106.511 7.58C106.645 7.58 106.69 7.61339 106.728 7.65111L108.142 6.23689C107.694 5.78928 107.124 5.58 106.511 5.58V7.58ZM106.728 7.65111C106.765 7.68883 106.799 7.7342 106.799 7.868H108.799C108.799 7.25513 108.59 6.68451 108.142 6.23689L106.728 7.65111ZM106.799 7.868V19.88H108.799V7.868H106.799ZM106.799 19.88C106.799 19.9549 106.785 19.9886 106.726 20.0432L108.087 21.5088C108.551 21.0781 108.799 20.5145 108.799 19.88H106.799ZM106.7 20.0689C106.651 20.1171 106.61 20.14 106.511 20.14V22.14C107.121 22.14 107.677 21.9202 108.114 21.4831L106.7 20.0689ZM113.987 20.776L114.695 20.0689L114.695 20.0689L113.987 20.776ZM113.987 6.972L114.695 7.67911L114.708 7.66602L114.72 7.65245L113.987 6.972ZM115.779 6.972L115.047 7.65245L115.072 7.67959L115.099 7.70479L115.779 6.972ZM116.171 9.016H115.171V11.6118L116.913 9.68691L116.171 9.016ZM118.467 7.14L118.961 8.00946L118.467 7.14ZM124.039 7.168L123.494 8.0065L123.504 8.01251L124.039 7.168ZM125.775 9.156L124.869 9.57889L124.873 9.58708L124.877 9.59521L125.775 9.156ZM125.999 20.776L125.319 20.0432L125.305 20.0558L125.292 20.0689L125.999 20.776ZM124.207 20.776L123.5 21.4831L123.5 21.4831L124.207 20.776ZM118.243 9.52L117.698 8.6815L117.689 8.68795L118.243 9.52ZM116.171 11.48L115.389 10.8575L115.171 11.1308V11.48H116.171ZM115.779 20.776L115.099 20.0432L115.085 20.0558L115.072 20.0689L115.779 20.776ZM114.883 20.14C114.784 20.14 114.743 20.1171 114.695 20.0689L113.28 21.4831C113.717 21.9202 114.274 22.14 114.883 22.14V20.14ZM114.695 20.0689C114.646 20.0207 114.623 19.9794 114.623 19.88H112.623C112.623 20.49 112.843 21.046 113.28 21.4831L114.695 20.0689ZM114.623 19.88V7.868H112.623V19.88H114.623ZM114.623 7.868C114.623 7.76863 114.646 7.72734 114.695 7.67911L113.28 6.26489C112.843 6.70199 112.623 7.25803 112.623 7.868H114.623ZM114.72 7.65245C114.775 7.5936 114.809 7.58 114.883 7.58V5.58C114.249 5.58 113.685 5.82773 113.255 6.29155L114.72 7.65245ZM114.883 7.58C114.958 7.58 114.992 7.5936 115.047 7.65245L116.512 6.29155C116.082 5.82773 115.518 5.58 114.883 5.58V7.58ZM115.099 7.70479C115.158 7.75944 115.171 7.79315 115.171 7.868H117.171C117.171 7.23352 116.924 6.66989 116.46 6.23921L115.099 7.70479ZM115.171 7.868V9.016H117.171V7.868H115.171ZM116.913 9.68691C117.559 8.97254 118.243 8.41768 118.961 8.00946L117.973 6.27054C117.049 6.79566 116.202 7.49146 115.43 8.34509L116.913 9.68691ZM118.961 8.00946C119.606 7.64299 120.4 7.44 121.379 7.44V5.44C120.119 5.44 118.971 5.70368 117.973 6.27054L118.961 8.00946ZM121.379 7.44C122.243 7.44 122.934 7.64193 123.494 8.00644L124.584 6.32956C123.652 5.7234 122.569 5.44 121.379 5.44V7.44ZM123.504 8.01251C124.104 8.39313 124.556 8.90775 124.869 9.57889L126.682 8.73311C126.211 7.72425 125.505 6.91354 124.575 6.32349L123.504 8.01251ZM124.877 9.59521C125.216 10.288 125.391 11.0601 125.391 11.928H127.391C127.391 10.7799 127.157 9.70403 126.674 8.71679L124.877 9.59521ZM125.391 11.928V19.88H127.391V11.928H125.391ZM125.391 19.88C125.391 19.9549 125.378 19.9886 125.319 20.0432L126.68 21.5088C127.144 21.0781 127.391 20.5145 127.391 19.88H125.391ZM125.292 20.0689C125.244 20.1171 125.203 20.14 125.103 20.14V22.14C125.713 22.14 126.269 21.9202 126.707 21.4831L125.292 20.0689ZM125.103 20.14C125.004 20.14 124.963 20.1171 124.915 20.0689L123.5 21.4831C123.937 21.9202 124.494 22.14 125.103 22.14V20.14ZM124.915 20.0689C124.866 20.0207 124.843 19.9794 124.843 19.88H122.843C122.843 20.49 123.063 21.046 123.5 21.4831L124.915 20.0689ZM124.843 19.88V12.208H122.843V19.88H124.843ZM124.843 12.208C124.843 10.9393 124.56 9.80105 123.816 8.97636C123.055 8.132 121.973 7.792 120.763 7.792V9.792C121.608 9.792 122.065 10.0213 122.331 10.3156C122.614 10.6296 122.843 11.1994 122.843 12.208H124.843ZM120.763 7.792C119.646 7.792 118.615 8.08558 117.698 8.68156L118.788 10.3584C119.365 9.98376 120.014 9.792 120.763 9.792V7.792ZM117.689 8.68795C116.859 9.24103 116.094 9.97058 115.389 10.8575L116.954 12.1025C117.555 11.3468 118.172 10.7696 118.798 10.352L117.689 8.68795ZM115.171 11.48V19.88H117.171V11.48H115.171ZM115.171 19.88C115.171 19.9549 115.158 19.9886 115.099 20.0432L116.46 21.5088C116.924 21.0781 117.171 20.5145 117.171 19.88H115.171ZM115.072 20.0689C115.024 20.1171 114.983 20.14 114.883 20.14V22.14C115.493 22.14 116.049 21.9202 116.487 21.4831L115.072 20.0689ZM132.758 26.264L132.237 27.1173L132.247 27.1235L132.257 27.1294L132.758 26.264ZM132.562 24.472L131.855 23.7649L131.825 23.7943L131.799 23.8261L132.562 24.472ZM133.878 24.248L134.325 23.3536L134.288 23.335L134.249 23.3195L133.878 24.248ZM142.782 18.872H143.782V16.3367L142.051 18.1893L142.782 18.872ZM134.774 20.188L134.295 21.0659L134.305 21.071L134.314 21.076L134.774 20.188ZM132.226 17.724L131.372 18.2449L131.376 18.2514L132.226 17.724ZM132.226 9.744L133.076 10.2714L133.08 10.2649L132.226 9.744ZM134.774 7.28L135.24 8.16459L135.246 8.16148L134.774 7.28ZM142.782 8.568L142.051 9.25066L143.782 11.1033V8.568H142.782ZM143.146 6.972L143.853 7.67911L143.866 7.66602L143.879 7.65245L143.146 6.972ZM144.938 6.972L144.205 7.65245L144.23 7.67959L144.258 7.70479L144.938 6.972ZM143.622 25.816L144.366 26.4838L143.622 25.816ZM140.85 18.116L140.364 17.2418L140.364 17.2418L140.85 18.116ZM142.782 16.604L143.5 17.3005L143.782 17.0095V16.604H142.782ZM142.782 10.836H143.782V10.4305L143.5 10.1395L142.782 10.836ZM140.85 9.324L141.336 8.44984L141.336 8.44984L140.85 9.324ZM135.082 10.052L135.774 10.7743L135.774 10.774L135.082 10.052ZM135.082 17.416L134.383 18.1307L134.39 18.1382L134.398 18.1455L135.082 17.416ZM138.75 26.72C137.754 26.72 136.745 26.5914 135.72 26.3308L135.228 28.2692C136.405 28.5686 137.58 28.72 138.75 28.72V26.72ZM135.72 26.3308C134.677 26.0655 133.865 25.7492 133.259 25.3986L132.257 27.1294C133.07 27.6002 134.069 27.9745 135.228 28.2692L135.72 26.3308ZM133.279 25.4107C133.265 25.4019 133.262 25.3975 133.263 25.3995C133.266 25.4019 133.268 25.4054 133.269 25.4077C133.272 25.4136 133.254 25.3834 133.254 25.284H131.254C131.254 26.0234 131.558 26.7024 132.237 27.1173L133.279 25.4107ZM133.254 25.284C133.254 25.2378 133.262 25.1926 133.325 25.1179L131.799 23.8261C131.451 24.2367 131.254 24.7329 131.254 25.284H133.254ZM133.269 25.1791C133.296 25.1524 133.311 25.1458 133.315 25.144C133.32 25.1422 133.336 25.136 133.374 25.136V23.136C132.792 23.136 132.267 23.353 131.855 23.7649L133.269 25.1791ZM133.374 25.136C133.36 25.136 133.4 25.1337 133.507 25.1765L134.249 23.3195C133.983 23.213 133.686 23.136 133.374 23.136V25.136ZM133.431 25.1424C134.995 25.9245 136.689 26.312 138.498 26.312V24.312C136.984 24.312 135.598 23.9902 134.325 23.3536L133.431 25.1424ZM138.498 26.312C140.097 26.312 141.475 25.8831 142.44 24.8554C143.394 23.8396 143.782 22.4083 143.782 20.748H141.782C141.782 22.1304 141.456 22.9811 140.982 23.4866C140.519 23.9802 139.755 24.312 138.498 24.312V26.312ZM143.782 20.748V18.872H141.782V20.748H143.782ZM142.051 18.1893C140.906 19.4147 139.571 20 137.994 20V22C140.15 22 142.007 21.1666 143.513 19.5547L142.051 18.1893ZM137.994 20C137.064 20 136.147 19.7729 135.234 19.3L134.314 21.076C135.492 21.6857 136.722 22 137.994 22V20ZM135.253 19.3101C134.391 18.8402 133.665 18.1459 133.076 17.1966L131.376 18.2514C132.131 19.4674 133.103 20.4158 134.295 21.0659L135.253 19.3101ZM133.08 17.2031C132.522 16.2894 132.218 15.1439 132.218 13.72H130.218C130.218 15.4321 130.586 16.9559 131.372 18.2449L133.08 17.2031ZM132.218 13.72C132.218 12.2954 132.522 11.1628 133.076 10.2714L131.376 9.21664C130.586 10.4905 130.218 12.0086 130.218 13.72H132.218ZM133.08 10.2649C133.668 9.29982 134.391 8.61265 135.24 8.16457L134.308 6.39543C133.104 7.03001 132.128 7.98551 131.372 9.22314L133.08 10.2649ZM135.246 8.16148C136.158 7.67315 137.07 7.44 137.994 7.44V5.44C136.715 5.44 135.481 5.76685 134.302 6.39852L135.246 8.16148ZM137.994 7.44C139.571 7.44 140.906 8.02528 142.051 9.25066L143.513 7.88534C142.007 6.27339 140.15 5.44 137.994 5.44V7.44ZM143.782 8.568V7.868H141.782V8.568H143.782ZM143.782 7.868C143.782 7.76863 143.805 7.72734 143.853 7.67911L142.439 6.26489C142.002 6.70199 141.782 7.25803 141.782 7.868H143.782ZM143.879 7.65245C143.933 7.5936 143.967 7.58 144.042 7.58V5.58C143.408 5.58 142.844 5.82773 142.413 6.29155L143.879 7.65245ZM144.042 7.58C144.117 7.58 144.151 7.5936 144.205 7.65245L145.671 6.29155C145.24 5.82773 144.676 5.58 144.042 5.58V7.58ZM144.258 7.70479C144.316 7.75944 144.33 7.79315 144.33 7.868H146.33C146.33 7.23352 146.082 6.66989 145.618 6.23921L144.258 7.70479ZM144.33 7.868V20.384H146.33V7.868H144.33ZM144.33 20.384C144.33 22.5834 143.798 24.122 142.878 25.1482L144.366 26.4838C145.723 24.9714 146.33 22.8886 146.33 20.384H144.33ZM142.878 25.1482C141.972 26.1575 140.648 26.72 138.75 26.72V28.72C141.071 28.72 142.994 28.0132 144.366 26.4838L142.878 25.1482ZM138.526 19.676C139.549 19.676 140.495 19.4571 141.336 18.9902L140.364 17.2418C139.861 17.5216 139.258 17.676 138.526 17.676V19.676ZM141.336 18.9902C142.105 18.5627 142.825 17.9951 143.5 17.3005L142.064 15.9075C141.507 16.4823 140.939 16.9226 140.364 17.2418L141.336 18.9902ZM143.782 16.604V10.836H141.782V16.604H143.782ZM143.5 10.1395C142.825 9.44494 142.105 8.87726 141.336 8.44984L140.364 10.1982C140.939 10.5174 141.507 10.9577 142.064 11.5325L143.5 10.1395ZM141.336 8.44984C140.495 7.98292 139.549 7.764 138.526 7.764V9.764C139.258 9.764 139.861 9.91841 140.364 10.1982L141.336 8.44984ZM138.526 7.764C136.904 7.764 135.497 8.26962 134.39 9.33001L135.774 10.774C136.459 10.117 137.348 9.764 138.526 9.764V7.764ZM134.39 9.32969C133.259 10.4134 132.766 11.9335 132.766 13.72H134.766C134.766 12.2959 135.151 11.3706 135.774 10.7743L134.39 9.32969ZM132.766 13.72C132.766 15.5079 133.259 17.031 134.383 18.1307L135.781 16.7013C135.15 16.0836 134.766 15.1428 134.766 13.72H132.766ZM134.398 18.1455C135.506 19.1838 136.91 19.676 138.526 19.676V17.676C137.342 17.676 136.45 17.3282 135.766 16.6865L134.398 18.1455Z" fill="#111111"/>
</svg>
